<svg width="56" height="56" viewBox="0 0 56 56" fill="none" xmlns="http://www.w3.org/2000/svg">
<path d="M41.4816 4.73675C42.3345 3.88381 42.761 3.45734 43.1862 3.17324C44.9323 2.00656 47.2092 2.00656 48.9552 3.17324C49.3804 3.45734 49.8069 3.88381 50.6598 4.73675V4.73675C51.5128 5.58969 51.9392 6.01616 52.2233 6.44134C53.39 8.1874 53.39 10.4643 52.2233 12.2104C51.9392 12.6356 51.5128 13.062 50.6598 13.915L22.5359 42.0389C21.8491 42.7257 21.5057 43.069 21.1073 43.3416C20.7088 43.6142 20.2643 43.8098 19.3753 44.2009L16.9889 45.251C11.8319 47.5201 9.25337 48.6546 7.99767 47.3989C6.74196 46.1432 7.87651 43.5647 10.1456 38.4076L11.1956 36.0213C11.5868 35.1323 11.7823 34.6878 12.0549 34.2893C12.3275 33.8908 12.6709 33.5475 13.3576 32.8607L41.4816 4.73675Z" stroke="#7B61FF" stroke-width="3.8" stroke-linecap="round"/>
<path d="M34.3608 11.7651L43.5391 20.9434" stroke="#7B61FF" stroke-width="3.8"/>
</svg>
