<svg width="42" height="52" viewBox="0 0 42 52" fill="none" xmlns="http://www.w3.org/2000/svg">
<path d="M2.82788 19.5098L5.64978 40.3716C6.22937 44.6565 6.51917 46.7989 7.98668 48.0813C9.4542 49.3637 11.6161 49.3637 15.94 49.3637H26.0596C30.3835 49.3637 32.5455 49.3637 34.013 48.0813C35.4805 46.7989 35.7703 44.6565 36.3499 40.3716L39.1718 19.5098" stroke="#7B61FF" stroke-width="4.2" stroke-linecap="round" stroke-linejoin="round"/>
<path d="M13.2119 10.4237V10.4237C13.2119 8.00456 13.2119 6.79498 13.6071 5.84084C14.1341 4.56866 15.1448 3.55791 16.417 3.03096C17.3711 2.63574 18.5807 2.63574 20.9999 2.63574V2.63574C23.4191 2.63574 24.6286 2.63574 25.5828 3.03096C26.855 3.55791 27.8657 4.56866 28.3927 5.84084C28.7879 6.79498 28.7879 8.00456 28.7879 10.4237V10.4237" stroke="#7B61FF" stroke-width="4.2" stroke-linecap="round" stroke-linejoin="round"/>
<path d="M39.1718 10.4238L2.82788 10.4238" stroke="#7B61FF" stroke-width="4.2" stroke-linecap="round" stroke-linejoin="round"/>
</svg>
